<svg id="svg" version="1.1" width="1000" height="1267" xmlns="http://www.w3.org/2000/svg"><path d="M520.000 14.995 C 512.025 15.402,500.775 16.492,495.000 17.417 C 479.734 19.861,448.284 22.908,427.000 24.005 C 406.451 25.064,402.286 26.002,392.263 31.827 C 381.427 38.126,370.886 43.189,365.500 44.683 C 357.717 46.842,334.976 48.938,318.972 48.970 L 304.444 49.000 297.039 52.548 L 289.635 56.097 292.792 59.253 L 295.948 62.410 281.224 67.557 C 256.832 76.083,248.877 80.908,234.350 95.986 C 227.643 102.947,224.971 105.028,221.492 106.002 C 219.077 106.679,216.333 108.080,215.395 109.116 C 213.785 110.895,213.796 111.117,215.595 113.108 C 217.208 114.893,218.249 115.128,222.386 114.639 C 225.073 114.322,227.098 114.213,226.886 114.397 C 226.674 114.581,219.241 118.410,210.368 122.907 C 193.428 131.491,189.420 134.370,192.040 136.070 C 195.416 138.261,198.191 137.942,209.435 134.064 C 215.918 131.829,221.358 130.000,221.525 130.000 C 221.691 130.000,218.941 132.771,215.413 136.159 C 211.886 139.546,209.000 142.773,209.000 143.330 C 209.000 143.887,209.648 145.058,210.439 145.933 C 211.720 147.348,211.195 148.086,205.689 152.615 C 196.192 160.428,193.100 161.642,181.000 162.313 C 168.945 162.982,158.575 165.804,153.988 169.663 C 151.469 171.783,147.000 178.620,147.000 180.354 C 147.000 180.593,151.162 179.408,156.250 177.720 C 163.472 175.324,167.254 174.650,173.500 174.647 C 185.042 174.642,200.000 175.241,200.000 175.709 C 200.000 176.595,188.472 181.133,183.648 182.146 C 180.817 182.740,173.486 185.254,167.358 187.733 C 156.947 191.943,155.703 192.755,148.411 200.090 C 144.119 204.407,140.832 208.166,141.108 208.442 C 141.384 208.718,145.128 207.631,149.427 206.027 C 156.835 203.264,157.139 203.226,155.227 205.305 C 153.070 207.652,143.000 227.223,143.000 229.068 C 143.000 229.676,146.544 227.217,150.875 223.604 C 160.382 215.675,165.257 213.452,175.049 212.580 L 182.500 211.918 174.494 216.209 C 170.091 218.569,164.691 221.831,162.494 223.458 C 150.567 232.292,138.357 246.617,133.251 257.765 C 130.881 262.939,121.709 295.043,122.403 295.736 C 122.831 296.164,125.880 290.963,133.388 277.000 C 136.493 271.225,140.149 265.150,141.512 263.500 L 143.992 260.500 142.996 263.993 C 141.622 268.812,141.745 278.345,143.200 279.800 C 145.078 281.678,146.132 281.306,152.520 276.509 C 155.809 274.039,159.975 271.312,161.778 270.449 C 166.477 268.199,176.671 266.767,182.388 267.553 L 187.294 268.228 180.174 271.975 C 171.553 276.511,167.741 279.362,158.090 288.491 C 149.654 296.471,136.455 315.516,133.000 324.694 C 130.096 332.409,128.494 340.238,129.358 342.491 C 129.996 344.154,130.335 344.056,133.136 341.409 C 134.829 339.809,137.628 336.025,139.357 333.000 L 142.500 327.500 143.000 332.863 L 143.500 338.225 146.214 332.663 C 148.262 328.468,150.224 326.229,154.201 323.551 C 160.223 319.495,162.330 318.955,159.222 322.264 C 156.277 325.398,154.229 330.683,153.477 337.082 C 152.162 348.276,145.007 362.162,137.155 368.757 C 134.595 370.907,130.508 373.979,128.073 375.583 C 122.985 378.936,123.847 379.500,132.927 378.761 C 136.940 378.434,140.260 377.294,144.789 374.686 C 151.846 370.622,151.846 370.623,143.814 381.041 C 139.503 386.632,138.000 389.412,138.000 391.791 C 138.000 393.556,138.436 395.000,138.969 395.000 C 141.738 395.000,154.540 385.162,160.702 378.298 C 168.463 369.655,171.127 365.719,178.168 352.500 C 182.024 345.260,182.965 344.057,182.981 346.347 C 183.011 350.824,175.426 364.246,168.748 371.534 C 163.962 376.757,162.966 378.366,164.082 379.072 C 164.862 379.565,166.063 379.976,166.750 379.985 C 167.438 379.993,168.000 380.463,168.000 381.029 C 168.000 382.977,162.161 393.616,154.614 405.420 C 144.072 421.909,142.834 425.548,142.339 441.500 L 141.937 454.500 144.927 449.000 C 146.572 445.975,149.051 439.900,150.436 435.500 C 152.511 428.909,153.956 426.383,158.637 421.160 C 162.903 416.400,164.517 415.172,165.111 416.234 C 166.745 419.154,161.100 436.225,155.762 444.500 C 154.343 446.700,147.751 455.250,141.112 463.500 C 134.473 471.750,127.575 481.200,125.783 484.500 C 122.936 489.745,122.524 491.443,122.513 498.000 C 122.501 504.759,123.034 506.833,127.906 519.000 C 130.880 526.425,133.524 534.638,133.783 537.250 C 134.043 539.862,134.563 542.000,134.940 542.000 C 135.317 542.000,136.844 540.729,138.333 539.175 C 141.630 535.733,143.194 530.701,142.425 526.007 C 142.110 524.078,143.910 527.447,146.426 533.493 C 149.615 541.158,150.989 545.851,150.965 548.993 C 150.869 561.331,145.582 573.473,134.322 587.215 C 127.827 595.141,127.126 596.726,129.200 598.800 C 131.119 600.719,133.589 600.232,141.086 596.457 L 148.121 592.914 142.390 603.953 C 139.238 610.025,136.916 615.250,137.230 615.564 C 138.151 616.484,148.220 611.056,151.665 607.781 L 154.831 604.772 156.441 607.886 C 158.942 612.723,163.155 612.240,168.671 606.482 C 171.052 603.998,173.000 602.321,173.000 602.757 C 173.000 604.623,163.753 619.526,155.579 630.834 C 150.715 637.563,146.955 643.288,147.224 643.557 C 147.492 643.825,152.839 640.998,159.106 637.273 C 172.655 629.219,176.459 626.654,180.634 622.757 C 183.668 619.926,183.813 619.894,185.134 621.757 C 187.353 624.885,190.521 626.133,193.435 625.025 C 196.818 623.739,196.684 624.237,192.360 629.024 C 190.358 631.240,188.895 633.187,189.110 633.350 C 197.538 639.774,199.258 639.896,207.244 634.641 C 213.873 630.278,213.976 630.248,213.350 632.852 C 212.999 634.308,211.409 638.110,209.817 641.299 C 204.406 652.137,202.000 660.255,202.000 667.675 C 202.000 674.226,202.184 674.786,205.351 677.855 L 208.701 681.103 209.293 674.042 C 209.987 665.768,213.182 659.102,219.823 652.075 C 222.201 649.559,223.832 648.110,223.448 648.856 C 222.094 651.490,220.050 673.573,220.659 679.000 C 220.998 682.025,222.506 687.247,224.009 690.605 C 226.704 696.624,233.254 705.000,235.265 705.000 C 236.286 705.000,235.891 695.676,234.398 684.500 L 233.729 679.500 237.204 684.000 C 239.115 686.475,242.977 691.731,245.786 695.680 L 250.894 702.859 246.197 705.830 C 229.644 716.298,168.677 748.029,130.500 766.046 C 100.491 780.208,86.212 786.649,72.500 792.207 C 64.250 795.552,50.300 801.535,41.500 805.504 C 32.700 809.473,23.781 813.278,21.680 813.960 C 19.579 814.643,17.633 815.793,17.356 816.515 C 16.325 819.201,35.113 874.103,45.241 898.000 C 87.479 997.665,138.287 1073.277,205.840 1137.000 C 250.207 1178.852,282.776 1200.689,334.624 1223.348 C 372.712 1239.993,416.920 1251.674,458.500 1256.079 C 485.513 1258.941,530.145 1258.947,556.000 1256.093 C 587.534 1252.611,618.880 1245.627,642.500 1236.821 C 673.809 1225.148,701.885 1212.058,723.045 1199.269 C 740.566 1188.680,773.286 1163.765,795.430 1144.152 C 828.753 1114.638,868.922 1068.241,894.691 1029.500 C 921.311 989.481,954.070 929.237,968.373 894.000 C 983.709 856.217,989.000 842.513,989.000 840.578 C 989.000 839.000,977.200 829.852,962.500 820.033 C 950.818 812.229,859.824 744.437,811.793 707.753 C 791.579 692.313,754.453 661.513,749.725 656.260 C 748.021 654.366,748.048 653.975,750.400 646.394 C 754.103 634.457,761.995 599.916,762.041 595.442 L 762.081 591.500 765.024 594.943 C 770.015 600.780,771.115 605.979,771.088 623.584 L 771.064 639.313 773.834 636.659 C 777.850 632.811,784.523 615.865,786.498 604.500 L 787.193 600.500 789.538 605.000 C 790.828 607.475,792.447 612.763,793.136 616.750 L 794.390 624.000 797.682 624.000 C 800.520 624.000,801.204 623.484,802.650 620.250 C 803.573 618.188,804.638 614.025,805.017 611.000 C 805.605 606.308,805.728 607.029,805.853 615.917 C 805.934 621.646,806.265 626.068,806.589 625.745 C 806.913 625.421,808.500 620.058,810.116 613.828 C 812.495 604.654,813.274 598.759,814.212 582.821 C 815.041 568.723,815.067 561.820,814.302 558.478 L 813.235 553.814 817.405 557.907 C 819.699 560.158,821.896 562.000,822.288 562.000 C 822.680 562.000,823.020 560.763,823.045 559.250 C 823.089 556.600,823.280 556.704,828.295 562.080 C 833.695 567.870,843.599 575.099,849.521 577.573 C 852.981 579.019,861.000 579.553,861.000 578.338 C 861.000 577.973,856.388 572.911,850.750 567.088 C 843.020 559.103,840.067 555.294,838.740 551.593 C 837.772 548.895,837.143 546.523,837.344 546.323 C 837.544 546.123,838.869 547.714,840.288 549.859 C 841.707 552.004,845.036 555.472,847.684 557.566 C 850.333 559.660,855.987 564.766,860.250 568.913 C 864.513 573.060,868.000 575.891,868.000 575.204 C 868.000 574.518,866.200 570.375,863.999 565.998 C 854.464 547.034,852.916 538.514,854.474 513.579 L 855.203 501.908 857.211 505.704 C 860.626 512.161,862.021 513.338,868.750 515.434 C 870.858 516.091,871.000 515.846,871.000 511.548 C 871.000 508.872,869.917 504.363,868.401 500.730 C 866.329 495.764,865.634 491.934,864.976 481.855 C 864.281 471.212,863.654 467.966,861.015 461.355 C 859.290 457.035,857.206 452.375,856.384 451.000 C 855.562 449.625,856.898 450.636,859.354 453.246 C 861.809 455.857,864.687 459.907,865.748 462.246 C 866.810 464.586,868.753 468.916,870.066 471.869 C 871.514 475.125,874.036 478.523,876.477 480.504 C 880.116 483.460,895.884 492.000,897.701 492.000 C 898.111 492.000,895.423 488.954,891.728 485.230 C 884.125 477.568,881.025 470.813,880.965 461.775 C 880.913 453.863,878.516 442.246,875.545 435.500 L 872.901 429.500 881.034 438.250 C 885.506 443.062,889.578 447.000,890.083 447.000 C 892.916 447.000,887.863 427.168,883.770 422.226 C 882.037 420.133,883.432 419.888,887.970 421.489 C 890.325 422.320,893.995 423.000,896.126 423.000 C 899.732 423.000,900.000 422.800,900.000 420.107 C 900.000 418.516,899.436 416.997,898.746 416.733 C 898.057 416.468,894.993 414.216,891.938 411.727 L 886.384 407.203 884.595 397.351 C 883.611 391.933,882.598 386.825,882.345 386.000 C 882.091 385.175,883.396 387.067,885.244 390.203 C 891.295 400.470,894.795 403.000,902.947 403.000 C 907.342 403.000,908.512 402.532,911.997 399.384 C 914.199 397.395,916.000 395.370,916.000 394.884 C 916.000 394.398,913.519 394.000,910.486 394.000 C 903.100 394.000,898.596 391.121,896.520 385.072 C 895.684 382.636,895.000 380.499,895.000 380.322 C 895.000 380.145,896.116 380.000,897.481 380.000 C 900.918 380.000,901.520 377.163,901.404 361.500 C 901.336 352.220,900.805 346.822,899.550 342.636 C 897.931 337.236,891.727 327.070,883.375 316.132 C 879.327 310.830,874.476 301.191,875.394 300.273 C 875.758 299.909,877.500 301.386,879.266 303.556 C 881.032 305.725,884.335 309.525,886.606 312.000 C 888.877 314.475,892.443 319.875,894.530 324.000 C 896.616 328.125,898.999 332.291,899.824 333.258 C 901.225 334.900,901.447 334.906,903.162 333.353 C 906.041 330.748,905.390 324.839,900.673 310.750 C 898.325 303.738,896.763 298.000,897.202 298.000 C 897.641 298.000,898.000 296.410,898.000 294.467 C 898.000 290.919,893.685 281.000,892.141 281.000 C 891.688 281.000,890.744 279.088,890.045 276.750 C 888.137 270.374,883.200 261.062,879.046 256.000 C 871.091 246.308,862.740 230.165,860.121 219.416 C 857.195 207.408,853.707 199.673,847.967 192.459 C 845.141 188.906,843.138 186.000,843.518 186.000 C 843.897 186.000,847.368 187.661,851.230 189.690 C 856.808 192.621,858.862 194.370,861.212 198.190 C 863.654 202.159,864.681 203.000,867.086 203.000 C 869.755 203.000,870.000 202.703,870.000 199.467 C 870.000 191.424,859.916 179.094,847.701 172.200 C 840.383 168.070,840.056 167.203,846.034 167.777 C 850.949 168.250,851.000 168.225,850.996 165.377 C 850.993 162.908,850.352 162.237,846.482 160.645 C 839.378 157.723,830.008 150.246,821.715 140.880 C 811.752 129.627,804.943 123.575,800.827 122.313 L 797.500 121.293 800.373 120.507 C 802.493 119.928,804.427 120.295,807.744 121.906 C 810.218 123.108,812.433 123.900,812.667 123.667 C 812.900 123.433,812.107 121.216,810.905 118.740 C 808.989 114.798,807.936 113.918,802.418 111.652 C 798.953 110.229,791.479 107.895,785.809 106.465 C 780.139 105.036,774.434 103.175,773.130 102.331 C 770.205 100.437,765.766 95.433,761.069 88.733 C 758.097 84.494,755.827 82.752,747.500 78.324 C 721.923 64.722,691.447 50.851,680.000 47.602 C 676.975 46.744,670.225 45.571,665.000 44.997 C 652.536 43.626,612.283 34.787,604.000 31.602 C 600.425 30.227,593.578 27.108,588.785 24.672 C 578.262 19.322,566.221 16.329,552.072 15.545 C 546.336 15.227,540.036 14.806,538.072 14.611 C 536.107 14.415,527.975 14.588,520.000 14.995 M553.500 21.414 C 570.066 22.906,577.274 24.864,588.500 30.923 C 598.457 36.297,607.656 39.480,622.000 42.514 C 628.875 43.968,639.225 46.203,645.000 47.481 C 650.775 48.758,658.875 50.100,663.000 50.463 C 673.633 51.400,680.686 53.400,695.229 59.604 C 713.424 67.365,743.884 82.418,751.523 87.423 C 752.801 88.261,756.426 92.373,759.579 96.561 C 766.810 106.169,770.485 108.574,782.660 111.666 C 793.089 114.314,797.085 115.905,793.500 115.982 C 791.876 116.017,787.000 121.585,787.000 123.404 C 787.000 123.642,789.935 124.814,793.523 126.008 C 800.999 128.495,807.412 133.220,814.327 141.335 C 819.019 146.841,819.082 147.000,816.577 147.000 C 814.335 147.000,814.000 147.423,814.004 150.250 C 814.010 155.334,817.376 159.644,825.246 164.643 C 842.649 175.698,847.681 179.037,850.500 181.401 C 853.193 183.659,852.529 183.514,844.000 179.989 C 837.398 177.259,832.982 176.052,829.523 176.031 L 824.547 176.000 832.100 183.750 C 847.520 199.571,850.890 205.298,855.117 222.864 C 857.554 232.995,870.127 256.581,875.412 260.937 C 877.612 262.750,882.359 272.000,881.090 272.000 C 879.388 272.000,874.397 265.084,868.970 255.205 C 866.037 249.867,861.113 242.125,858.026 238.000 C 854.940 233.875,850.336 227.575,847.795 224.000 C 843.381 217.789,832.000 205.760,832.000 207.306 C 832.000 208.654,840.184 224.466,841.934 226.500 C 842.881 227.600,845.804 234.575,848.431 242.000 C 851.058 249.425,854.233 256.864,855.487 258.531 C 856.741 260.198,861.689 264.923,866.482 269.031 C 876.049 277.231,883.094 285.915,888.517 296.191 C 892.072 302.930,895.306 311.027,894.688 311.645 C 894.505 311.829,891.237 308.353,887.427 303.922 C 879.960 295.236,876.811 293.000,872.050 293.000 C 869.125 293.000,869.001 293.174,869.024 297.250 C 869.060 303.797,872.958 311.856,882.413 324.936 C 890.665 336.352,892.976 340.415,894.396 346.000 C 894.746 347.375,893.929 346.146,892.581 343.269 C 890.768 339.399,888.911 337.265,885.443 335.066 C 880.752 332.091,854.088 322.578,853.129 323.537 C 852.850 323.817,854.751 326.209,857.355 328.853 C 859.959 331.496,863.532 335.753,865.295 338.311 C 867.058 340.869,870.596 346.008,873.158 349.731 C 879.730 359.279,885.609 370.500,888.511 379.032 C 889.878 383.050,890.844 386.489,890.660 386.674 C 890.475 386.859,889.130 384.870,887.672 382.255 C 886.213 379.640,883.778 376.083,882.260 374.350 C 879.000 370.630,864.456 362.000,861.445 362.000 C 859.525 362.000,854.105 366.542,855.079 367.334 C 855.311 367.522,857.750 368.742,860.500 370.045 C 863.250 371.348,867.548 374.548,870.051 377.156 C 875.064 382.379,876.918 387.033,879.550 401.010 C 880.754 407.405,881.809 410.222,883.824 412.428 C 886.666 415.539,878.394 409.220,872.250 403.587 L 869.000 400.608 869.000 405.443 C 869.000 409.600,869.746 411.418,874.313 418.390 C 881.274 429.013,881.790 429.979,878.914 426.998 C 873.912 421.815,867.235 417.096,859.250 413.103 C 854.712 410.834,851.000 409.337,851.000 409.776 C 851.000 410.216,853.275 412.808,856.056 415.538 C 861.269 420.654,867.215 430.372,871.022 440.000 C 873.257 445.651,876.000 460.779,875.918 467.000 L 875.872 470.500 874.270 467.000 C 873.388 465.075,871.784 461.550,870.704 459.168 C 868.147 453.523,858.755 443.426,853.630 440.811 C 848.793 438.344,839.300 435.000,837.131 435.000 C 836.148 435.000,837.260 436.747,840.154 439.750 C 846.204 446.026,852.225 455.170,855.519 463.084 C 857.545 467.953,858.382 472.153,858.990 480.500 C 859.430 486.550,859.612 491.687,859.395 491.917 C 859.178 492.146,859.000 491.641,859.000 490.794 C 859.000 488.329,855.248 480.534,853.145 478.631 C 851.294 476.956,851.133 477.004,849.109 479.848 C 846.584 483.393,846.530 484.575,848.572 491.601 C 849.911 496.206,849.986 498.875,849.072 509.560 C 847.570 527.141,847.816 538.351,849.876 546.251 L 851.637 553.003 849.568 551.668 C 848.431 550.934,845.383 546.771,842.795 542.417 C 834.346 528.200,833.125 527.303,831.158 533.866 C 829.510 539.367,829.709 542.781,832.103 550.085 C 834.461 557.281,835.521 559.572,837.875 562.567 C 838.769 563.704,835.675 560.654,831.000 555.789 C 824.418 548.939,821.898 546.949,819.833 546.971 C 818.367 546.987,816.999 547.504,816.793 548.120 C 816.116 550.152,811.183 542.439,809.536 536.771 C 808.434 532.981,805.700 528.278,800.959 522.017 C 794.338 513.272,792.209 508.000,795.297 508.000 C 797.669 508.000,803.752 515.406,807.412 522.750 C 812.953 533.869,813.983 532.773,813.579 516.185 C 813.208 500.960,813.330 501.359,804.899 487.750 C 802.259 483.487,800.336 480.000,800.626 480.000 C 800.916 480.000,803.667 481.800,806.740 484.000 C 809.812 486.200,812.671 488.000,813.094 488.000 C 813.517 488.000,811.251 482.488,808.060 475.750 C 802.506 464.027,802.163 462.834,800.086 448.020 C 798.240 434.848,797.282 431.047,793.661 422.520 C 787.674 408.420,776.003 390.941,767.770 383.748 C 764.150 380.584,760.046 376.047,758.650 373.666 C 755.433 368.176,750.478 355.644,749.590 350.750 C 748.925 347.088,747.729 346.011,746.512 347.980 C 746.179 348.519,745.220 352.894,744.381 357.702 C 742.616 367.811,742.976 373.001,746.706 391.244 L 749.312 403.987 746.995 411.744 C 745.220 417.687,744.658 422.089,744.589 430.575 C 744.501 441.478,744.444 441.741,740.877 447.575 C 736.399 454.899,735.403 458.103,734.058 469.500 C 732.892 479.387,729.758 492.489,725.019 507.283 C 720.837 520.338,720.216 527.544,719.528 571.000 C 718.819 615.834,717.943 628.269,714.563 641.500 C 710.167 658.706,699.266 678.422,688.044 689.462 C 685.270 692.192,683.000 694.160,683.000 693.837 C 683.000 693.513,684.079 690.808,685.399 687.825 C 694.565 667.097,701.682 641.335,703.587 621.985 C 704.992 607.709,698.974 571.491,694.975 570.158 C 694.021 569.840,693.870 570.590,694.380 573.116 C 696.033 581.300,697.997 602.322,697.965 611.494 C 697.910 627.257,695.084 636.692,686.798 648.778 C 682.398 655.196,679.562 662.299,676.526 674.500 C 672.514 690.622,668.175 700.574,661.116 709.848 C 657.752 714.267,654.595 718.132,654.100 718.438 C 653.606 718.744,654.048 715.733,655.083 711.747 C 657.273 703.316,657.491 694.542,655.683 687.567 C 654.226 681.951,652.000 680.239,652.000 684.735 C 652.000 688.594,649.502 696.917,645.782 705.449 C 640.508 717.547,611.486 754.424,603.636 759.002 C 599.291 761.537,597.228 761.498,575.500 758.468 C 562.769 756.693,549.055 756.917,539.120 759.061 C 528.644 761.321,524.116 760.234,504.444 750.737 C 488.958 743.259,466.491 735.000,461.639 735.000 C 459.476 735.000,444.637 727.420,441.316 724.619 C 439.226 722.856,435.718 717.002,431.108 707.582 C 424.139 693.344,421.539 689.807,413.173 683.188 C 408.006 679.100,406.908 676.996,403.620 664.884 C 401.351 656.524,400.977 652.998,400.755 637.884 C 400.615 628.323,400.890 612.850,401.366 603.500 C 402.183 587.457,402.113 586.190,400.122 581.000 C 396.989 572.832,380.410 543.500,378.927 543.500 C 375.046 543.500,375.713 556.462,380.035 565.052 C 384.944 574.808,386.135 580.519,385.033 589.014 C 382.782 606.366,384.448 618.158,390.955 630.911 C 393.475 635.852,395.728 647.361,397.431 664.000 C 399.028 679.610,400.546 683.933,410.710 701.824 C 417.534 713.836,423.407 725.926,422.741 726.593 C 421.951 727.383,414.800 723.036,408.557 717.971 C 401.065 711.892,394.478 703.879,390.496 696.000 C 386.843 688.773,384.190 685.278,374.249 674.601 C 356.588 655.634,353.016 647.968,352.260 627.414 C 351.888 617.312,352.286 610.591,354.008 597.944 C 355.576 586.420,356.042 579.475,355.580 574.530 C 353.749 554.938,353.744 551.166,355.543 543.809 C 357.580 535.477,362.085 522.715,365.014 516.972 C 366.106 514.831,367.000 512.387,367.000 511.540 C 367.000 509.548,364.062 509.568,361.191 511.579 C 357.170 514.395,353.058 515.084,350.453 513.377 C 346.796 510.981,345.187 504.766,344.637 490.910 C 343.590 464.527,335.220 445.772,320.628 437.115 C 314.333 433.380,314.684 433.421,297.500 434.431 C 288.163 434.980,286.882 434.883,289.023 433.789 C 294.623 430.929,298.698 427.500,301.709 423.116 C 304.709 418.747,307.000 413.931,307.000 411.992 C 307.000 411.509,303.512 412.746,299.250 414.740 C 291.814 418.220,291.072 418.363,280.953 418.278 C 271.970 418.203,268.085 417.578,254.757 414.068 C 245.984 411.757,235.460 409.679,230.804 409.340 C 225.558 408.957,221.856 408.173,220.750 407.212 C 218.195 404.990,218.491 397.620,221.380 391.500 C 224.287 385.345,237.911 371.938,246.750 366.536 C 253.017 362.706,254.962 360.276,250.750 361.541 C 246.645 362.773,224.651 375.142,214.600 381.872 C 209.154 385.517,202.124 391.097,198.976 394.271 C 192.265 401.038,185.650 413.082,186.175 417.579 L 186.515 420.500 190.008 415.591 C 199.599 402.111,200.998 402.207,198.930 416.202 C 197.106 428.546,197.211 441.199,199.192 448.000 C 200.073 451.025,201.086 455.188,201.443 457.250 C 201.869 459.717,202.628 461.000,203.662 461.000 C 205.347 461.000,205.299 460.678,202.481 453.000 C 201.244 449.633,200.997 446.914,201.499 442.200 C 202.234 435.296,205.422 423.178,206.889 421.711 C 208.474 420.126,209.695 424.063,210.388 433.000 C 211.165 443.012,215.179 456.008,218.670 459.815 L 221.134 462.500 220.317 452.500 C 219.868 447.000,219.590 438.926,219.699 434.557 C 219.958 424.228,221.311 422.357,231.088 418.813 C 240.412 415.432,241.290 415.400,237.250 418.584 C 234.053 421.103,233.071 423.000,234.962 423.000 C 237.958 423.000,247.823 427.749,251.239 430.835 C 258.750 437.620,266.268 450.438,269.898 462.647 C 271.715 468.756,271.928 471.247,271.368 479.792 C 270.730 489.539,270.792 489.957,273.836 496.464 C 275.554 500.135,279.386 506.594,282.353 510.819 C 290.239 522.050,293.024 528.214,294.600 537.921 C 296.005 546.577,296.302 564.957,295.127 570.500 C 294.597 573.001,293.945 573.553,291.203 573.817 C 285.359 574.379,279.371 571.238,273.623 564.594 C 267.152 557.114,264.162 549.284,262.960 536.669 C 262.291 529.641,261.026 524.707,257.543 515.542 C 255.045 508.965,253.000 503.453,253.000 503.292 C 253.000 502.195,255.471 503.475,258.516 506.148 C 263.423 510.457,264.842 513.586,267.715 526.432 C 271.548 543.573,275.339 551.089,278.538 547.890 C 283.176 543.253,280.390 524.849,273.408 513.998 C 269.089 507.286,266.832 504.796,258.802 497.885 C 252.479 492.443,244.863 477.619,241.278 463.776 C 239.062 455.224,238.643 451.571,238.780 442.000 C 238.870 435.675,238.523 429.825,238.008 429.000 C 235.448 424.897,230.399 437.188,229.381 450.000 C 228.726 458.240,230.147 465.238,236.496 485.038 C 240.958 498.954,241.470 503.650,240.040 517.523 C 239.379 523.930,239.105 529.438,239.430 529.763 C 239.755 530.088,241.278 529.150,242.815 527.677 C 248.982 521.769,251.500 524.878,251.500 538.403 C 251.500 550.138,250.732 552.267,240.691 568.381 C 231.925 582.448,230.473 586.598,230.723 596.853 C 230.924 605.106,231.937 608.000,234.622 608.000 C 235.574 608.000,236.005 606.685,236.017 603.750 C 236.034 599.531,242.298 584.335,246.258 578.909 C 247.994 576.530,248.008 576.569,247.407 582.129 C 247.056 585.385,247.208 588.011,247.769 588.357 C 248.700 588.933,258.180 579.512,260.743 575.464 C 261.813 573.774,261.898 574.058,261.358 577.500 C 261.013 579.700,259.864 584.342,258.805 587.816 C 255.744 597.854,256.825 598.135,263.894 589.138 C 267.411 584.662,270.469 581.000,270.690 581.000 C 270.910 581.000,270.775 582.687,270.389 584.750 C 268.973 592.318,264.192 600.543,254.728 611.693 C 244.005 624.325,242.265 628.094,241.449 640.458 C 241.023 646.903,241.382 650.273,243.255 657.432 C 244.540 662.345,246.069 666.523,246.653 666.718 C 247.272 666.924,248.205 664.025,248.893 659.764 C 249.541 655.745,251.805 646.576,253.923 639.388 C 258.201 624.869,261.674 618.945,269.768 612.364 C 272.370 610.247,275.298 607.612,276.274 606.508 C 279.075 603.338,283.000 595.295,283.000 592.724 C 283.000 591.436,283.641 589.509,284.425 588.441 C 285.795 586.575,285.896 586.616,287.014 589.500 C 288.140 592.403,289.620 600.802,290.274 608.000 L 290.593 611.500 291.795 608.688 C 292.456 607.142,293.307 602.642,293.686 598.688 C 294.238 592.935,294.511 592.099,295.054 594.500 C 295.428 596.150,296.742 599.975,297.975 603.000 C 299.207 606.025,302.190 614.036,304.603 620.802 C 307.016 627.568,310.164 635.584,311.598 638.616 C 313.032 641.647,314.020 644.314,313.793 644.541 C 313.565 644.768,309.582 646.716,304.940 648.869 C 299.106 651.575,295.981 653.666,294.819 655.642 C 293.894 657.214,290.679 660.912,287.675 663.861 L 282.212 669.222 282.745 662.593 C 283.184 657.124,282.963 655.616,281.483 653.982 C 278.530 650.718,273.687 651.385,268.893 655.715 C 265.545 658.740,264.135 659.375,261.311 659.132 C 254.072 658.508,250.496 666.255,248.748 686.346 C 248.513 689.039,248.232 688.825,243.500 682.353 C 236.778 673.159,235.495 672.000,232.045 672.000 C 229.453 672.000,229.009 672.435,228.425 675.548 C 228.059 677.499,228.003 680.986,228.300 683.298 L 228.841 687.500 227.497 683.500 C 224.875 675.692,226.241 660.190,231.107 642.534 C 233.959 632.184,234.030 631.495,232.373 630.284 C 231.408 629.578,230.359 629.000,230.043 629.000 C 229.728 629.000,227.139 632.488,224.290 636.750 C 219.542 643.856,212.000 652.396,212.000 650.668 C 212.000 650.269,213.318 647.332,214.929 644.142 C 216.539 640.951,218.564 635.611,219.429 632.276 C 221.079 625.906,221.556 616.000,220.212 616.000 C 219.779 616.000,217.192 618.275,214.462 621.056 C 209.252 626.365,199.239 633.573,198.334 632.667 C 198.042 632.375,200.266 629.068,203.275 625.318 C 212.237 614.151,216.000 604.825,216.000 593.780 L 216.000 586.873 212.814 587.187 C 209.757 587.487,209.411 588.004,204.272 599.961 C 196.160 618.833,192.757 622.220,188.158 616.000 C 185.342 612.191,183.128 612.210,179.437 616.077 C 176.275 619.390,167.000 626.364,167.000 625.429 C 167.000 625.116,168.288 622.979,169.863 620.680 C 176.346 611.215,181.409 598.591,183.531 586.597 C 185.689 574.400,185.557 572.999,182.250 573.003 C 179.694 573.006,179.123 573.865,174.163 585.170 C 169.257 596.350,163.879 605.000,161.833 605.000 C 161.375 605.000,161.000 603.495,161.000 601.655 C 161.000 597.322,157.744 594.054,155.082 595.717 C 153.393 596.771,153.339 596.549,154.244 592.306 C 155.092 588.327,154.963 587.519,153.196 585.751 L 151.180 583.736 148.340 585.733 C 146.778 586.832,143.969 588.514,142.097 589.470 L 138.695 591.209 142.193 586.855 C 151.567 575.188,157.989 556.999,156.669 545.855 C 156.364 543.276,154.231 536.741,151.929 531.333 C 147.328 520.523,145.928 512.763,146.745 502.589 C 147.264 496.119,147.229 496.000,144.824 496.000 C 142.048 496.000,137.624 500.222,136.443 504.000 C 136.013 505.375,135.400 509.396,135.081 512.936 L 134.500 519.373 131.154 511.245 C 124.826 495.879,126.284 491.394,145.246 467.896 C 160.248 449.305,161.515 447.443,165.669 437.874 C 170.418 426.934,172.253 417.541,170.474 413.284 C 169.248 410.350,168.677 410.000,165.110 410.000 C 162.914 410.000,160.841 410.448,160.503 410.995 C 160.165 411.542,159.014 412.458,157.944 413.030 C 156.664 413.715,157.854 411.196,161.421 405.666 C 169.752 392.753,174.000 383.705,174.000 378.878 C 174.000 375.623,174.739 373.804,177.362 370.603 C 183.280 363.380,188.000 352.776,188.000 346.703 C 188.000 341.674,185.700 332.567,183.939 330.622 C 183.502 330.139,180.364 335.314,176.966 342.122 C 170.712 354.653,161.493 369.520,158.380 372.094 C 157.445 372.867,158.552 370.087,160.840 365.915 C 163.583 360.913,165.000 357.081,165.000 354.665 C 165.000 351.259,164.788 351.000,162.000 351.000 C 160.350 351.000,158.999 351.337,158.997 351.750 C 158.996 352.163,157.190 354.525,154.984 357.000 C 151.183 361.265,151.075 361.317,152.913 358.000 C 155.845 352.708,158.997 342.533,159.022 338.282 C 159.053 332.961,161.997 327.242,167.383 322.042 C 172.216 317.375,173.400 313.512,170.250 312.689 C 169.287 312.438,170.433 312.180,172.794 312.116 C 180.386 311.911,189.414 308.977,199.581 303.412 C 220.302 292.069,221.765 291.497,230.000 291.528 C 237.648 291.556,250.222 294.129,255.343 296.713 C 260.021 299.073,259.682 297.263,254.440 291.895 C 246.650 283.916,241.324 281.615,230.500 281.552 C 216.396 281.470,211.586 283.392,202.004 292.935 C 193.100 301.803,186.646 305.877,176.500 309.031 C 172.650 310.228,168.600 311.584,167.500 312.045 C 166.400 312.506,163.925 313.178,162.000 313.539 C 160.075 313.899,157.037 315.035,155.250 316.063 C 151.678 318.118,151.511 317.810,152.919 311.750 C 153.851 307.733,153.280 307.244,149.820 309.096 C 145.716 311.293,153.531 301.705,164.296 291.337 C 172.613 283.326,176.470 280.401,182.662 277.410 C 190.591 273.580,196.000 269.561,196.000 267.498 C 196.000 265.137,188.537 262.685,179.962 262.229 C 168.967 261.645,160.853 263.667,153.122 268.917 L 147.321 272.856 148.120 268.178 C 149.188 261.924,151.365 255.164,153.933 250.131 C 155.100 247.844,155.563 246.000,154.971 246.000 C 153.132 246.000,147.628 249.112,144.600 251.864 C 142.209 254.037,142.472 253.384,146.100 248.142 C 155.522 234.527,172.627 221.781,187.137 217.563 C 190.190 216.675,193.545 215.310,194.594 214.530 C 196.439 213.157,196.411 213.021,193.743 210.321 C 191.123 207.670,190.453 207.514,180.243 207.173 C 172.361 206.911,168.312 207.228,165.039 208.363 C 162.586 209.215,160.446 209.779,160.284 209.618 C 160.123 209.456,164.268 205.390,169.495 200.582 C 178.858 191.971,180.695 189.594,177.250 190.546 C 176.287 190.812,176.850 190.369,178.500 189.560 C 180.150 188.752,182.400 188.060,183.500 188.024 C 190.923 187.778,210.154 177.563,217.500 169.963 L 221.500 165.825 216.000 166.266 C 212.975 166.509,207.125 167.483,203.000 168.430 C 197.094 169.786,193.587 169.988,186.500 169.378 L 177.500 168.604 186.403 167.755 C 197.607 166.686,199.610 165.542,218.356 149.505 C 234.247 135.910,236.063 135.015,247.750 135.006 C 255.614 135.000,255.862 134.772,253.960 129.314 C 253.047 126.697,252.153 126.152,246.710 124.892 L 240.500 123.454 247.643 121.727 C 251.572 120.777,257.077 120.000,259.877 120.000 L 264.968 120.000 263.399 116.712 C 259.740 109.038,251.186 106.949,242.399 111.583 C 236.799 114.536,237.172 114.080,245.500 107.795 C 248.800 105.305,253.412 101.192,255.750 98.656 C 259.460 94.631,260.000 93.463,260.000 89.466 L 260.000 84.887 256.909 86.693 C 255.209 87.687,250.709 91.109,246.909 94.298 C 239.293 100.690,237.550 100.743,244.250 94.379 C 257.170 82.106,265.659 78.278,309.750 64.844 C 316.820 62.690,317.000 62.554,317.000 59.367 C 317.000 57.310,316.352 55.722,315.250 55.080 C 313.998 54.351,317.487 54.043,327.500 53.999 C 342.703 53.932,361.805 51.931,369.068 49.644 C 374.086 48.063,386.609 41.951,395.080 36.947 C 403.945 31.710,407.466 30.873,424.500 29.949 C 445.346 28.819,470.761 26.408,489.500 23.782 C 502.272 21.993,517.115 20.812,534.500 20.203 C 536.700 20.126,545.250 20.671,553.500 21.414 M306.500 59.921 C 305.400 60.358,302.727 61.041,300.560 61.439 C 297.042 62.085,296.761 61.993,297.933 60.581 C 298.801 59.535,300.812 59.021,303.872 59.063 C 307.215 59.109,307.945 59.347,306.500 59.921 M527.345 88.603 C 546.601 107.600,551.865 122.431,545.626 140.107 C 541.805 150.931,533.966 160.682,532.390 156.573 C 532.070 155.741,532.281 152.009,532.858 148.280 C 535.607 130.512,534.914 116.471,531.228 115.243 C 530.318 114.939,529.989 117.248,529.958 124.167 C 529.910 134.665,528.304 142.996,525.754 145.974 C 522.220 150.101,516.696 144.389,511.033 130.752 C 507.930 123.280,506.493 121.174,505.307 122.359 C 505.000 122.667,506.042 126.640,507.624 131.188 C 510.630 139.831,516.108 149.302,521.187 154.637 C 524.610 158.233,523.557 159.874,519.279 157.612 C 517.751 156.803,513.531 153.657,509.901 150.621 C 504.586 146.173,502.626 143.681,499.819 137.800 C 497.903 133.785,495.480 127.578,494.435 124.006 C 492.991 119.070,491.451 116.388,488.018 112.833 C 483.796 108.461,478.749 105.918,477.256 107.411 C 476.898 107.769,478.956 110.118,481.829 112.631 C 488.527 118.491,489.628 120.752,491.060 131.586 C 492.775 144.554,496.201 150.539,505.000 155.937 L 508.500 158.084 505.503 157.372 C 500.247 156.122,490.608 151.894,487.282 149.380 C 485.276 147.863,483.407 145.099,482.322 142.044 C 481.364 139.347,480.225 137.361,479.790 137.630 C 477.387 139.115,480.518 150.922,484.436 155.148 C 485.755 156.570,488.894 158.581,491.413 159.616 C 498.480 162.523,497.490 164.319,489.304 163.442 C 471.166 161.500,452.799 148.552,445.057 132.250 C 443.163 128.262,441.246 125.000,440.798 125.000 C 439.090 125.000,450.053 144.832,455.723 152.000 C 462.643 160.749,466.900 163.935,476.468 167.529 C 482.412 169.762,484.470 170.065,490.468 169.590 C 509.052 168.116,522.606 167.858,527.872 168.876 C 536.380 170.522,566.381 173.364,576.000 173.436 C 583.105 173.490,585.485 173.065,590.500 170.851 C 611.747 161.470,616.683 160.406,629.000 162.552 C 644.073 165.177,657.915 172.309,665.207 181.208 C 669.140 186.007,670.513 190.037,671.601 199.975 C 673.348 215.938,680.973 223.966,702.478 232.483 C 711.304 235.978,714.622 238.533,723.251 248.481 C 733.714 260.545,741.436 277.085,742.637 290.006 C 743.329 297.449,744.371 298.712,746.140 294.250 C 746.927 292.264,746.926 288.816,746.137 281.846 C 744.449 266.940,740.527 258.360,730.726 248.133 C 726.182 243.392,704.594 227.808,698.000 224.508 C 689.831 220.421,680.237 213.816,679.217 211.577 C 678.612 210.250,677.143 203.615,675.951 196.832 C 673.255 181.480,668.707 166.966,664.652 160.768 C 660.366 154.218,656.420 152.997,639.572 153.010 C 627.818 153.019,625.970 153.266,621.250 155.464 C 612.944 159.331,615.142 155.910,625.406 148.995 C 633.587 143.483,639.380 141.732,649.059 141.846 C 660.655 141.983,669.337 144.702,674.193 149.718 C 678.194 153.851,679.270 157.883,680.538 173.500 C 681.944 190.816,686.393 204.474,692.870 211.359 C 694.866 213.481,700.350 218.694,705.056 222.942 C 709.761 227.191,713.436 231.192,713.222 231.833 C 713.008 232.475,713.378 233.000,714.044 233.000 C 716.428 233.000,714.447 223.802,710.767 217.784 C 708.845 214.641,704.897 206.766,701.996 200.284 C 699.094 193.803,694.334 184.225,691.419 179.000 C 688.503 173.775,685.573 167.250,684.908 164.500 C 682.946 156.392,676.393 144.210,672.827 142.041 C 664.109 136.739,640.181 134.806,627.000 138.338 C 621.834 139.723,619.496 141.047,615.607 144.790 C 610.218 149.977,610.138 148.775,615.299 140.148 C 620.367 131.675,621.842 130.537,631.051 127.988 C 637.349 126.244,643.318 125.493,654.500 125.039 C 667.643 124.505,669.143 124.276,666.617 123.189 C 665.031 122.507,660.406 121.453,656.338 120.848 C 642.078 118.727,616.255 124.423,611.356 130.770 C 609.311 133.419,604.495 143.858,602.484 150.000 C 600.696 155.463,596.116 163.449,595.261 162.594 C 595.015 162.349,595.981 158.092,597.407 153.136 C 598.833 148.179,600.000 143.421,600.000 142.562 C 600.000 139.638,598.068 140.989,594.684 146.280 C 591.136 151.826,582.636 160.000,580.417 160.000 C 579.570 160.000,580.695 156.600,583.646 150.250 C 586.137 144.887,589.301 137.800,590.676 134.500 C 603.365 104.041,609.175 95.885,621.722 90.912 C 629.661 87.765,630.883 86.000,625.121 86.000 C 620.047 86.000,610.913 89.361,606.969 92.679 C 602.751 96.228,596.477 107.398,593.478 116.695 C 590.840 124.873,587.690 131.000,586.123 131.000 C 584.311 131.000,583.980 125.807,585.472 120.783 C 587.799 112.948,587.135 94.208,584.500 93.333 C 583.871 93.124,583.483 97.548,583.455 105.250 C 583.402 119.465,581.659 126.101,574.393 139.736 C 565.387 156.639,558.432 165.765,556.233 163.567 C 555.906 163.239,558.417 157.240,561.815 150.236 C 567.029 139.485,568.093 136.370,568.640 130.250 C 569.377 121.995,567.787 120.183,566.006 127.250 C 563.546 137.013,558.561 148.235,554.876 152.308 C 550.333 157.328,550.093 156.252,553.750 147.261 C 556.174 141.302,556.500 139.194,556.500 129.500 C 556.500 119.274,556.282 118.042,553.409 112.000 C 551.160 107.270,547.755 102.885,540.909 95.898 C 532.779 87.602,522.620 80.040,519.563 80.009 C 519.047 80.004,522.549 83.871,527.345 88.603 M710.000 113.669 C 704.731 115.462,701.552 117.636,698.958 121.217 C 697.331 123.463,696.000 125.655,696.000 126.089 C 696.000 126.523,698.067 126.174,700.593 125.314 C 707.251 123.045,717.389 123.991,729.000 127.964 C 744.183 133.160,754.000 135.212,754.000 133.189 C 754.000 132.743,751.188 131.546,747.750 130.529 C 740.379 128.349,731.000 123.959,731.000 122.690 C 731.000 122.187,733.951 122.092,737.750 122.472 C 752.157 123.913,767.469 122.356,766.973 119.500 C 766.878 118.950,766.282 118.679,765.650 118.897 C 765.018 119.115,760.675 119.501,756.000 119.755 C 748.616 120.157,745.616 119.743,733.149 116.609 C 719.709 113.229,713.578 112.451,710.000 113.669 M293.500 130.525 C 277.612 134.309,274.855 134.706,270.000 133.912 C 262.281 132.648,260.000 132.767,260.000 134.432 C 260.000 136.598,265.416 140.005,270.142 140.811 C 272.452 141.206,274.511 142.033,274.717 142.651 C 275.260 144.280,269.566 145.981,263.101 146.122 L 257.500 146.244 263.500 147.177 C 273.446 148.723,281.364 146.777,297.679 138.777 C 315.276 130.147,319.836 129.405,330.855 133.380 C 341.018 137.046,342.438 136.738,337.079 132.033 C 328.648 124.630,319.577 124.316,293.500 130.525 M753.000 172.822 C 753.000 175.478,756.801 184.120,759.579 187.782 C 764.339 194.054,778.686 205.119,788.895 210.391 C 800.933 216.609,815.936 220.378,809.427 215.550 C 808.367 214.764,802.550 212.028,796.500 209.469 C 786.719 205.334,774.407 198.259,775.350 197.317 C 775.940 196.727,792.987 201.024,798.183 203.072 C 804.818 205.687,807.330 205.624,804.087 202.925 C 798.927 198.628,788.463 193.648,778.704 190.844 C 764.921 186.885,760.172 183.911,757.000 177.254 C 754.753 172.539,753.000 170.596,753.000 172.822 M299.000 209.000 C 299.000 210.575,299.667 211.000,302.134 211.000 C 310.469 211.000,317.052 214.982,323.095 223.680 C 326.635 228.774,326.717 230.300,323.560 232.369 C 321.493 233.723,321.209 234.513,321.700 237.538 L 322.279 241.109 314.776 240.429 C 306.295 239.660,304.244 240.792,309.543 243.319 C 313.574 245.242,314.054 247.000,310.547 247.000 C 309.198 247.000,306.972 247.511,305.601 248.136 L 303.108 249.272 306.304 251.399 C 308.062 252.569,310.331 255.222,311.347 257.294 C 312.966 260.595,313.058 261.843,312.097 267.363 C 310.709 275.333,310.656 284.193,312.010 281.875 C 312.532 280.981,314.937 274.578,317.353 267.646 C 320.215 259.434,324.380 250.418,329.307 241.771 C 336.759 228.690,340.517 224.162,349.884 216.981 C 353.696 214.058,354.022 213.527,352.384 212.909 C 349.494 211.818,342.038 213.084,336.637 215.581 L 331.773 217.830 326.292 214.324 C 317.152 208.477,313.126 207.046,305.750 207.022 C 299.659 207.002,299.000 207.195,299.000 209.000 M367.131 219.584 C 344.090 238.885,328.438 265.858,325.075 292.058 C 323.011 308.136,326.403 325.653,335.551 346.162 C 343.093 363.071,347.947 377.784,350.013 390.000 C 352.527 404.859,352.489 406.655,349.500 414.596 C 348.125 418.249,347.000 422.040,347.000 423.020 C 347.000 426.193,351.502 434.627,355.804 439.515 L 360.000 444.282 359.996 439.891 C 359.994 437.229,359.185 434.175,357.941 432.136 C 356.696 430.092,356.021 427.540,356.222 425.636 L 356.554 422.500 358.471 426.269 C 359.526 428.341,360.863 429.881,361.444 429.689 C 362.025 429.498,362.759 426.002,363.076 421.921 C 363.490 416.588,364.545 412.562,366.826 407.612 C 369.423 401.975,370.008 399.432,370.042 393.612 C 370.065 389.530,370.811 384.475,371.792 381.748 C 373.828 376.084,391.708 354.272,402.828 343.887 C 410.455 336.765,411.466 334.441,405.737 337.202 C 400.004 339.964,376.675 357.011,370.917 362.644 C 365.974 367.481,365.183 367.925,364.018 366.522 C 362.027 364.122,363.375 348.044,366.355 338.660 C 369.771 327.905,373.222 323.079,387.531 309.049 C 394.432 302.282,399.902 296.569,399.686 296.353 C 398.709 295.375,387.745 303.390,377.255 312.750 C 370.937 318.387,365.189 323.000,364.481 323.000 C 363.773 323.000,361.017 320.728,358.355 317.951 C 354.896 314.342,351.878 309.425,347.768 300.701 C 340.426 285.118,340.166 280.649,345.622 263.732 C 351.629 245.103,358.079 234.036,370.663 220.761 C 376.855 214.230,379.180 211.000,377.689 211.000 C 377.518 211.000,372.767 214.863,367.131 219.584 M265.000 217.768 C 265.000 220.477,260.450 226.566,256.783 228.764 C 254.978 229.847,249.000 231.971,243.500 233.484 C 238.000 234.997,229.814 238.017,225.309 240.194 C 212.996 246.144,211.375 249.327,222.886 244.952 C 227.778 243.092,243.195 239.024,245.413 239.007 C 245.915 239.003,243.890 240.733,240.913 242.851 C 236.081 246.288,230.855 248.882,214.750 255.836 C 212.137 256.965,210.000 258.363,210.000 258.944 C 210.000 260.419,211.535 260.278,219.130 258.106 C 240.857 251.892,261.309 235.693,266.294 220.750 C 267.650 216.684,267.671 216.000,266.439 216.000 C 265.648 216.000,265.000 216.796,265.000 217.768 M860.494 252.125 C 864.470 258.910,864.636 260.853,860.806 255.777 C 858.540 252.775,855.559 246.000,856.504 246.000 C 856.724 246.000,858.520 248.756,860.494 252.125 M710.042 253.502 C 710.019 254.053,711.386 259.228,713.081 265.002 C 715.433 273.018,716.597 280.128,718.005 295.077 C 720.407 320.576,719.276 329.668,711.980 343.537 C 708.236 350.655,708.103 355.894,711.496 362.581 C 716.403 372.249,718.253 379.516,717.487 386.114 C 717.101 389.437,716.448 393.357,716.035 394.827 C 715.321 397.368,715.225 397.278,714.088 393.000 C 709.599 376.112,708.412 374.039,702.151 372.163 C 699.174 371.271,697.253 369.700,694.561 365.951 C 690.001 359.604,687.175 358.432,680.347 360.051 C 677.512 360.723,672.900 361.053,670.097 360.783 C 667.294 360.514,665.000 360.679,665.000 361.150 C 665.000 361.622,665.882 363.653,666.960 365.664 C 669.105 369.667,668.869 371.000,666.014 371.000 C 664.122 371.000,660.540 367.223,659.533 364.168 C 658.884 362.195,638.737 354.503,636.485 355.368 C 635.668 355.681,634.994 356.964,634.986 358.219 C 634.959 362.820,633.751 364.889,630.151 366.501 C 623.120 369.649,622.487 370.149,620.716 373.959 C 618.432 378.872,611.563 385.826,598.717 396.229 C 582.444 409.405,575.889 416.729,572.054 426.019 C 568.944 433.551,568.821 434.333,569.504 442.217 C 570.525 453.995,575.792 471.326,584.574 491.803 C 595.342 516.912,601.953 537.102,602.040 545.144 C 602.078 548.640,601.747 552.700,601.304 554.167 C 599.659 559.623,591.259 569.716,584.336 574.555 C 580.576 577.183,575.619 581.121,573.319 583.307 C 569.876 586.579,568.259 587.365,564.151 587.759 C 556.423 588.502,549.438 586.345,539.550 580.164 C 530.892 574.751,530.322 574.552,522.050 574.035 C 512.540 573.440,508.498 571.609,503.084 565.443 C 499.514 561.377,498.537 558.240,499.326 553.379 C 499.860 550.088,498.470 545.000,497.037 545.000 C 496.684 545.000,495.629 547.138,494.693 549.750 C 492.223 556.640,492.510 563.100,495.554 569.107 C 498.685 575.286,502.188 576.998,511.718 577.006 C 520.655 577.013,525.350 578.422,529.821 582.439 C 534.908 587.009,545.082 591.932,553.665 593.977 C 559.977 595.481,561.917 595.539,569.318 594.445 C 573.964 593.758,578.757 592.665,579.968 592.017 C 581.180 591.369,582.380 591.046,582.634 591.301 C 583.687 592.354,581.661 596.973,579.901 597.532 C 578.855 597.863,578.000 598.732,578.000 599.462 C 578.000 600.994,581.988 614.266,582.660 614.971 C 583.914 616.287,584.882 611.858,584.403 607.000 L 583.860 601.500 586.050 604.000 C 588.048 606.280,588.191 607.247,587.687 615.000 C 587.046 624.851,585.236 632.183,583.999 629.945 C 583.559 629.150,582.450 624.483,581.535 619.574 C 579.334 607.777,576.617 602.575,574.470 606.049 C 574.023 606.771,573.404 606.750,572.476 605.980 C 571.736 605.366,569.639 605.007,567.815 605.182 L 564.500 605.500 563.715 613.429 C 563.158 619.056,562.147 622.797,560.233 626.314 L 557.536 631.269 556.445 625.885 C 555.844 622.923,554.554 618.111,553.577 615.191 C 551.909 610.207,551.947 605.908,553.699 601.341 C 554.134 600.209,553.700 599.910,551.993 600.162 C 549.223 600.571,548.876 601.219,545.652 612.000 L 543.110 620.500 543.055 615.250 C 543.025 612.362,542.561 610.000,542.024 610.000 C 541.488 610.000,539.674 611.510,537.995 613.356 C 535.752 615.821,534.318 616.592,532.593 616.262 C 530.957 615.950,529.765 616.497,528.666 618.066 C 527.446 619.808,526.781 620.063,525.731 619.192 C 524.974 618.563,522.853 618.308,520.937 618.614 C 518.349 619.027,516.635 618.578,514.000 616.796 C 510.651 614.532,510.487 614.140,510.204 607.715 C 509.889 600.545,509.004 599.538,506.447 603.440 C 505.568 604.783,503.870 606.020,502.674 606.190 C 501.040 606.423,500.108 607.742,498.923 611.500 C 497.681 615.438,496.840 616.574,494.962 616.847 C 492.204 617.249,490.975 618.623,487.226 625.500 L 484.500 630.500 484.197 625.795 L 483.894 621.090 480.197 621.409 C 478.164 621.584,476.009 621.789,475.409 621.864 C 474.809 621.939,473.093 624.250,471.597 627.000 C 470.100 629.750,468.672 632.000,468.424 632.000 C 468.176 632.000,467.102 631.456,466.037 630.791 C 464.324 629.721,463.415 630.287,458.126 635.709 C 454.840 639.078,451.419 643.109,450.526 644.667 L 448.900 647.500 449.458 644.500 C 449.765 642.850,450.532 638.967,451.162 635.872 C 452.304 630.262,451.917 627.000,450.111 627.000 C 449.587 627.000,448.851 628.463,448.475 630.250 C 448.098 632.038,446.188 637.100,444.231 641.500 C 441.120 648.490,440.681 650.458,440.753 657.085 C 440.850 666.137,442.482 673.000,444.539 673.000 C 445.399 673.000,446.000 672.050,446.000 670.691 C 446.000 669.421,446.598 667.564,447.329 666.565 C 448.415 665.080,449.044 664.953,450.763 665.873 C 451.921 666.493,453.798 667.000,454.934 667.000 C 456.817 667.000,457.014 666.358,457.163 659.750 L 457.326 652.500 457.913 658.000 C 458.398 662.544,458.855 663.551,460.545 663.793 C 462.496 664.072,463.827 663.019,469.445 656.750 C 470.997 655.018,472.924 654.000,474.651 654.000 C 476.159 654.000,478.992 652.892,480.947 651.537 C 482.902 650.182,487.570 648.430,491.322 647.644 C 495.542 646.760,499.069 645.344,500.572 643.933 C 502.940 641.708,503.000 641.702,503.000 643.695 C 503.000 645.257,503.828 645.873,506.516 646.309 C 508.449 646.623,511.242 647.832,512.722 648.996 C 514.418 650.330,516.223 650.910,517.602 650.564 C 518.806 650.262,521.496 650.727,523.580 651.598 C 526.496 652.816,530.618 653.149,541.435 653.042 C 549.171 652.965,563.305 653.361,572.844 653.923 C 589.506 654.905,590.350 654.863,594.344 652.863 C 596.630 651.717,597.938 651.369,597.250 652.090 C 595.028 654.418,595.863 654.736,604.250 654.760 C 611.467 654.780,612.907 654.477,615.753 652.339 L 619.005 649.894 617.945 652.197 C 617.362 653.464,615.111 655.767,612.942 657.315 C 604.368 663.437,610.941 663.740,622.374 657.750 C 626.835 655.413,631.212 652.631,632.099 651.568 C 633.680 649.676,633.834 649.674,639.525 651.464 C 644.651 653.077,645.935 653.138,650.418 651.988 C 653.213 651.270,659.041 650.625,663.370 650.553 C 670.644 650.433,671.419 650.214,673.613 647.664 C 677.386 643.277,677.608 640.517,674.560 635.911 C 671.485 631.264,668.678 630.978,668.183 635.261 C 667.923 637.520,667.481 637.910,665.683 637.471 C 664.044 637.070,663.009 637.679,661.527 639.917 C 659.239 643.371,658.737 642.907,656.487 635.250 C 655.638 632.362,654.692 630.000,654.383 630.000 C 654.075 630.000,651.546 631.991,648.764 634.425 L 643.706 638.850 640.462 636.262 C 638.510 634.705,636.740 632.048,636.014 629.587 C 635.352 627.339,633.998 624.600,633.006 623.500 C 632.013 622.400,630.450 619.250,629.532 616.500 C 628.614 613.750,626.882 610.448,625.682 609.162 L 623.500 606.823 627.500 607.535 C 632.199 608.372,635.238 610.881,638.720 616.800 C 640.726 620.211,641.146 622.009,640.754 625.493 C 640.386 628.758,640.633 630.029,641.717 630.445 C 643.298 631.052,646.485 627.900,648.026 624.207 L 648.983 621.914 655.145 626.098 L 661.307 630.283 660.634 626.891 C 659.869 623.038,657.822 621.194,650.000 617.315 C 646.975 615.815,641.575 611.826,638.000 608.451 C 632.251 603.023,630.898 602.235,626.286 601.627 C 622.937 601.186,620.611 600.282,619.783 599.100 C 619.041 598.041,616.583 596.951,613.997 596.535 C 611.523 596.136,608.143 595.030,606.484 594.077 C 602.341 591.696,597.000 590.686,597.000 592.284 C 597.000 592.963,597.886 594.072,598.969 594.748 C 600.051 595.424,601.593 597.247,602.396 598.798 C 604.328 602.536,611.980 610.130,613.109 609.433 C 613.599 609.130,614.000 607.780,614.000 606.433 C 614.000 604.226,614.201 604.108,616.020 605.242 C 618.504 606.788,620.013 611.337,621.084 620.500 C 621.534 624.350,622.193 629.148,622.550 631.162 C 622.913 633.213,622.728 635.632,622.130 636.662 C 621.229 638.210,621.056 637.921,621.030 634.832 C 620.974 628.070,618.740 625.548,617.648 631.012 C 617.053 633.983,617.000 634.006,613.773 632.689 C 609.536 630.960,609.094 628.549,612.692 626.798 C 615.241 625.557,615.468 625.021,615.155 620.973 C 614.749 615.713,614.003 614.137,610.126 610.340 C 607.025 607.302,605.189 605.967,600.604 603.412 C 597.850 601.877,597.748 601.888,598.516 603.649 C 598.960 604.667,599.497 607.300,599.710 609.500 L 600.096 613.500 597.986 609.000 C 596.825 606.525,594.925 603.487,593.764 602.250 L 591.651 600.000 594.826 600.000 C 598.681 600.000,599.006 598.469,595.346 597.551 C 593.887 597.185,590.642 595.474,588.136 593.750 L 583.579 590.614 586.915 589.253 C 590.531 587.778,604.503 578.614,605.434 577.106 C 605.749 576.597,607.918 576.210,610.254 576.245 C 616.744 576.343,620.495 573.931,621.835 568.799 C 623.794 561.294,623.606 560.143,618.440 548.000 C 614.489 538.714,603.783 510.762,602.352 506.000 L 601.000 501.500 608.031 508.663 C 611.897 512.602,616.470 516.317,618.192 516.917 C 621.655 518.124,622.942 517.603,621.465 515.590 C 619.997 513.590,603.203 489.855,597.135 481.205 C 587.202 467.046,582.829 458.661,583.183 454.450 L 583.500 450.667 587.813 456.832 C 592.307 463.256,595.167 465.534,597.578 464.608 C 599.803 463.755,599.283 459.565,595.500 447.864 C 591.450 435.335,590.992 427.759,593.907 421.500 C 596.109 416.771,605.461 407.319,606.414 408.860 C 607.470 410.569,604.400 416.667,600.540 420.527 C 596.786 424.280,596.684 426.000,600.215 426.000 C 603.065 426.000,607.738 422.354,619.175 411.205 C 628.104 402.500,629.376 401.621,635.675 399.804 C 644.366 397.297,664.608 396.181,668.929 397.971 C 672.494 399.447,676.000 404.944,676.000 409.057 C 676.000 410.676,675.663 411.988,675.250 411.974 C 674.837 411.960,672.046 410.385,669.046 408.474 C 662.667 404.410,657.660 404.014,644.500 406.530 C 631.099 409.092,629.312 409.837,622.778 415.581 C 619.325 418.616,614.604 422.314,612.287 423.800 C 607.211 427.053,606.885 428.162,611.250 427.331 C 615.591 426.503,621.060 423.699,623.419 421.091 L 625.337 418.970 626.919 423.660 C 628.158 427.337,629.551 429.070,633.359 431.676 C 637.569 434.556,639.039 434.999,644.359 434.994 C 647.737 434.991,652.095 434.546,654.044 434.004 C 658.109 432.875,663.364 427.860,664.984 423.565 L 666.091 420.630 669.228 423.767 C 671.995 426.534,672.233 427.194,671.242 429.368 C 669.907 432.298,671.024 433.000,677.023 433.000 C 681.838 433.000,682.805 434.438,680.282 437.850 C 676.361 443.154,663.783 447.997,649.767 449.599 C 643.063 450.366,641.092 451.949,643.653 454.511 C 645.149 456.006,646.902 456.167,656.938 455.731 C 666.438 455.319,669.711 454.743,675.288 452.503 C 679.248 450.912,682.788 448.742,683.788 447.293 C 686.775 442.960,689.041 440.907,690.107 441.566 C 692.164 442.838,692.717 446.434,691.355 449.692 C 690.610 451.476,690.000 455.898,690.000 459.518 C 690.000 467.236,688.092 471.688,684.386 472.618 C 680.974 473.474,671.198 472.404,664.412 470.432 C 655.951 467.972,655.770 469.286,664.014 473.325 C 673.470 477.957,683.540 479.211,690.361 476.606 C 696.779 474.155,698.006 472.311,698.696 464.082 C 699.226 457.764,699.638 456.641,702.225 454.464 C 703.846 453.100,706.433 452.000,708.018 452.000 C 711.836 452.000,712.754 450.237,709.568 449.026 C 706.270 447.772,698.000 440.156,698.000 438.373 C 698.000 436.662,698.480 436.674,703.778 438.519 C 707.596 439.849,708.309 439.844,710.411 438.467 C 712.679 436.980,714.000 433.290,714.000 428.439 C 714.000 427.167,712.658 422.641,711.017 418.380 C 709.376 414.119,708.171 410.496,708.339 410.327 C 708.507 410.159,710.924 410.985,713.709 412.162 C 716.494 413.338,719.447 414.042,720.271 413.726 C 723.201 412.602,725.260 393.159,727.075 349.500 C 728.586 313.128,728.307 302.051,725.450 285.143 C 723.565 273.987,722.367 269.637,720.077 265.634 C 716.893 260.069,710.109 251.868,710.042 253.502 M277.011 283.435 C 284.840 286.322,292.822 291.060,296.253 294.859 C 301.296 300.440,302.925 303.987,303.655 310.975 C 304.257 316.736,304.406 317.000,307.047 317.000 C 309.701 317.000,309.792 316.832,309.362 312.750 C 308.427 303.857,306.656 296.923,304.616 294.158 C 299.172 286.781,289.019 281.950,279.212 282.070 L 273.500 282.141 277.011 283.435 M784.000 299.980 C 784.000 302.320,787.633 309.857,790.750 313.983 C 796.102 321.068,809.429 331.693,818.981 336.490 C 830.560 342.306,844.322 345.872,840.433 342.049 C 839.920 341.545,834.100 338.703,827.500 335.735 C 820.900 332.767,812.868 328.483,809.651 326.216 L 803.802 322.094 807.651 322.678 C 809.768 322.999,816.000 324.808,821.500 326.697 C 827.000 328.586,832.625 330.358,834.000 330.633 L 836.500 331.134 834.174 329.095 C 829.389 324.901,817.147 319.079,806.500 315.935 C 792.896 311.918,789.652 309.891,786.998 303.750 C 785.025 299.188,784.000 297.898,784.000 299.980 M240.500 305.152 C 227.222 308.925,225.946 309.107,215.750 308.685 C 207.515 308.345,205.000 308.536,205.000 309.505 C 205.000 311.428,209.922 314.258,215.437 315.506 C 218.153 316.120,220.532 317.095,220.724 317.671 C 220.916 318.248,218.919 319.299,216.287 320.007 C 210.087 321.675,208.642 323.004,213.050 322.985 C 219.857 322.956,229.089 319.945,242.461 313.392 C 258.736 305.416,265.216 304.341,275.407 307.923 C 278.655 309.066,282.255 309.981,283.407 309.958 C 285.194 309.923,284.929 309.412,281.585 306.460 C 273.686 299.485,261.782 299.106,240.500 305.152 M289.500 315.722 C 288.400 315.991,282.863 317.755,277.196 319.642 C 262.177 324.642,257.775 325.308,251.686 323.499 C 245.466 321.652,245.000 321.647,245.000 323.418 C 245.000 324.279,247.620 325.709,251.666 327.055 C 257.295 328.928,259.590 329.173,266.416 328.626 C 270.862 328.269,275.744 327.704,277.264 327.370 C 279.358 326.909,279.899 327.094,279.492 328.131 C 278.727 330.085,272.634 333.983,264.505 337.720 C 258.124 340.653,257.796 340.943,260.829 340.970 C 264.327 341.002,272.872 337.887,284.337 332.401 C 288.097 330.602,291.810 329.373,292.587 329.672 C 294.971 330.586,294.163 333.004,290.874 334.797 C 285.161 337.910,282.049 341.105,280.858 345.080 C 279.380 350.012,280.262 350.968,283.766 348.233 C 292.267 341.601,294.128 340.684,300.277 340.095 C 307.313 339.422,307.096 339.907,305.015 329.532 C 302.486 316.924,298.626 313.487,289.500 315.722 M772.000 331.856 C 772.000 332.941,773.349 337.355,774.997 341.665 C 778.593 351.065,785.711 359.465,794.000 364.089 C 798.994 366.875,799.188 367.104,796.110 366.576 C 794.245 366.256,788.854 364.298,784.129 362.225 C 775.674 358.515,773.790 356.744,770.594 349.500 C 769.948 348.036,768.033 351.130,768.015 353.667 C 767.966 360.601,779.095 374.983,788.000 379.494 C 790.475 380.748,796.325 383.135,801.000 384.800 C 812.236 388.800,820.638 392.606,821.572 394.117 C 822.116 394.997,821.792 395.131,820.414 394.596 C 819.361 394.186,812.285 392.757,804.689 391.420 C 789.524 388.750,786.991 387.775,782.399 382.835 C 778.226 378.347,770.411 367.039,769.556 364.250 C 769.176 363.012,768.487 362.000,768.024 362.000 C 766.707 362.000,770.525 373.510,773.584 378.762 C 776.494 383.756,787.542 398.737,796.992 410.500 C 805.786 421.448,807.513 425.014,810.432 438.250 C 810.765 439.762,811.652 441.000,812.402 441.000 C 815.263 441.000,815.808 431.976,813.520 422.500 C 811.784 415.311,811.698 414.000,812.962 414.000 C 813.492 414.000,815.492 417.262,817.408 421.250 C 820.832 428.377,824.185 441.165,825.470 452.000 C 827.647 470.354,830.398 482.809,833.999 490.612 C 837.531 498.263,839.453 500.880,840.658 499.675 C 840.947 499.387,839.567 492.694,837.592 484.802 C 833.171 467.134,832.071 458.940,832.031 443.407 C 831.991 427.918,830.310 422.663,822.417 413.358 C 819.265 409.644,817.174 406.442,817.769 406.244 C 819.658 405.614,827.345 410.059,831.789 414.351 C 835.327 417.768,836.243 418.231,837.023 416.996 C 838.323 414.940,838.239 413.339,836.476 406.568 C 835.637 403.349,835.075 400.615,835.226 400.493 C 835.377 400.371,836.513 399.744,837.750 399.100 C 841.484 397.157,840.361 394.341,832.500 385.935 C 821.595 374.274,822.549 372.890,835.902 381.000 C 846.861 387.656,847.677 387.604,843.866 380.485 C 842.693 378.293,839.727 374.630,837.275 372.345 C 831.455 366.920,831.693 364.457,838.021 364.605 C 840.484 364.663,843.513 365.053,844.750 365.472 C 846.599 366.098,847.000 365.868,847.000 364.184 C 847.000 361.812,846.081 361.448,835.304 359.553 C 829.891 358.602,823.612 358.331,815.827 358.715 C 802.009 359.395,796.347 358.247,789.724 353.422 C 784.371 349.522,775.381 337.949,774.453 333.761 C 773.718 330.443,772.000 329.109,772.000 331.856 M875.628 336.598 C 881.512 339.027,886.049 342.873,887.704 346.835 C 889.548 351.248,893.994 370.595,893.947 374.000 C 893.917 376.188,893.747 376.064,892.587 373.000 C 888.843 363.115,881.622 350.272,875.158 342.000 C 869.604 334.891,869.672 335.000,870.755 335.000 C 871.306 335.000,873.498 335.719,875.628 336.598 M428.291 351.906 C 427.636 352.954,425.391 354.364,423.300 355.040 C 411.347 358.903,409.222 360.065,406.403 364.279 C 399.356 374.813,388.122 394.532,388.999 394.828 C 390.433 395.313,396.000 391.084,396.000 389.510 C 396.000 386.742,409.432 377.000,413.249 377.000 C 413.979 377.000,416.247 376.149,418.289 375.108 C 421.144 373.652,422.000 373.528,422.000 374.569 C 422.000 375.314,423.769 376.399,425.932 376.982 C 430.564 378.229,434.953 377.376,443.279 373.612 C 450.366 370.408,451.097 370.397,456.322 373.408 C 462.754 377.116,470.299 378.276,480.039 377.054 C 484.592 376.483,488.531 375.803,488.792 375.541 C 489.053 375.280,487.297 374.751,484.890 374.366 C 482.102 373.921,479.512 372.665,477.756 370.910 C 474.607 367.761,474.056 365.372,476.750 366.553 C 479.420 367.723,497.905 370.428,498.585 369.749 C 499.768 368.565,497.780 364.867,495.494 363.998 C 493.820 363.361,493.304 362.552,493.674 361.141 C 494.563 357.740,490.620 356.604,472.742 355.111 C 465.447 354.501,462.465 353.826,460.926 352.433 C 458.271 350.030,451.991 350.244,445.066 352.974 C 438.480 355.570,437.377 355.525,433.411 352.500 C 429.488 349.508,429.768 349.540,428.291 351.906 M288.869 360.040 C 286.322 361.050,280.247 362.169,275.369 362.527 C 264.791 363.304,259.942 365.359,248.668 373.845 C 235.916 383.442,227.674 391.345,224.680 396.846 C 223.137 399.681,222.317 402.000,222.857 402.000 C 223.396 402.000,226.754 398.806,230.317 394.901 C 238.278 386.179,241.651 384.051,250.086 382.429 C 262.433 380.055,273.722 375.018,284.723 366.975 C 297.215 357.841,298.084 356.387,288.869 360.040 M309.914 369.770 C 299.484 383.609,295.298 385.513,272.240 386.912 C 256.855 387.846,253.354 389.485,249.956 397.347 C 248.804 400.013,248.090 402.423,248.370 402.703 C 248.649 402.983,250.935 401.735,253.448 399.930 C 257.649 396.913,258.643 396.644,265.759 396.599 C 270.017 396.572,277.550 396.908,282.500 397.345 C 294.796 398.430,298.563 396.904,306.812 387.500 C 312.845 380.622,316.016 374.252,315.985 369.072 C 315.952 363.554,314.471 363.724,309.914 369.770 M689.500 378.859 C 696.636 383.262,701.000 390.015,701.000 396.654 C 701.000 398.530,701.653 401.628,702.452 403.539 C 703.404 405.818,703.706 408.690,703.328 411.880 C 702.791 416.415,703.042 417.158,707.030 422.813 C 711.219 428.753,711.274 428.933,709.631 431.440 C 707.954 434.000,704.728 434.749,702.225 433.160 C 701.524 432.715,700.205 429.685,699.294 426.426 C 697.811 421.121,696.430 419.208,686.118 408.168 C 679.583 401.172,672.852 394.945,670.561 393.776 C 666.657 391.784,666.001 391.757,650.699 392.962 C 641.995 393.647,634.690 394.024,634.465 393.799 C 634.240 393.574,635.590 391.112,637.464 388.329 L 640.873 383.268 655.186 383.735 C 669.740 384.210,673.931 384.791,679.775 387.141 C 685.391 389.399,687.714 386.191,685.488 379.250 C 684.612 376.519,685.558 376.426,689.500 378.859 M416.000 378.753 C 413.990 379.451,402.517 391.851,403.226 392.559 C 404.007 393.341,410.582 390.472,413.808 387.943 C 416.879 385.534,418.913 382.304,418.965 379.750 C 419.001 377.963,418.632 377.839,416.000 378.753 M493.000 382.283 C 493.000 382.543,493.672 384.363,494.493 386.328 C 495.990 389.911,500.830 395.329,506.705 400.000 L 509.850 402.500 508.675 410.334 C 507.501 418.160,505.783 421.000,502.222 421.000 C 501.454 421.000,495.353 415.826,488.663 409.502 L 476.500 398.004 466.191 398.002 C 460.041 398.001,456.115 398.378,456.461 398.936 C 456.779 399.451,460.298 400.597,464.282 401.484 C 470.741 402.921,472.065 403.642,476.513 408.142 C 479.256 410.917,484.087 414.502,487.250 416.108 C 490.413 417.715,493.000 419.438,493.000 419.938 C 493.000 422.203,498.364 426.978,501.588 427.583 C 504.408 428.111,505.819 427.704,509.137 425.405 C 513.090 422.666,513.261 422.637,514.609 424.480 C 517.149 427.954,516.069 431.704,508.000 447.439 C 503.600 456.018,500.000 463.704,500.000 464.519 C 500.000 467.062,503.011 466.144,505.802 462.750 C 507.272 460.962,510.749 457.025,513.530 454.000 C 524.446 442.125,525.745 437.567,522.404 422.877 C 521.526 419.017,521.063 415.604,521.374 415.292 C 522.543 414.124,528.010 421.340,528.989 425.341 C 530.747 432.532,531.463 434.324,532.750 434.752 C 534.501 435.333,534.392 423.060,532.585 416.275 C 529.928 406.294,525.677 401.566,511.500 392.824 C 499.353 385.333,493.000 381.714,493.000 382.283 M450.500 386.835 C 444.061 389.214,440.270 391.196,430.706 397.187 C 415.872 406.479,411.032 410.645,404.496 419.752 C 401.043 424.563,397.044 429.591,395.609 430.924 C 393.788 432.616,393.000 434.371,393.000 436.734 L 393.000 440.119 397.750 436.097 C 400.363 433.884,405.864 427.597,409.976 422.126 C 417.274 412.415,417.728 412.022,428.976 405.688 C 449.114 394.348,450.881 393.757,468.342 392.511 C 473.205 392.165,478.348 391.438,479.771 390.897 L 482.358 389.913 480.154 387.707 C 478.180 385.730,476.778 385.473,466.725 385.244 C 457.814 385.040,454.469 385.368,450.500 386.835 M394.510 400.132 C 390.450 401.778,388.297 402.032,382.951 401.495 C 377.713 400.969,376.126 401.143,375.121 402.354 C 373.583 404.207,374.563 406.296,378.914 410.437 C 380.611 412.052,382.000 413.722,382.000 414.147 C 382.000 414.572,379.730 417.043,376.956 419.638 L 371.913 424.355 374.297 426.428 C 375.608 427.567,377.438 429.738,378.364 431.250 C 380.935 435.453,382.647 434.716,383.394 429.085 C 383.919 425.127,385.403 422.298,391.019 414.544 C 397.395 405.740,401.000 399.964,401.000 398.550 C 401.000 397.686,399.858 397.964,394.510 400.132 M443.500 410.092 C 420.294 414.123,415.483 416.068,409.909 423.677 C 405.793 429.295,392.594 446.822,390.458 449.505 C 389.822 450.303,384.946 451.266,377.958 451.972 C 366.750 453.105,366.304 453.071,357.500 450.436 C 343.703 446.307,343.549 446.289,344.984 448.971 C 346.391 451.599,359.608 458.004,365.164 458.749 C 367.237 459.027,371.085 458.710,373.716 458.044 C 376.347 457.378,382.290 456.218,386.923 455.465 C 395.193 454.121,395.450 453.992,401.167 448.335 L 406.988 442.574 417.744 446.225 C 432.432 451.210,439.732 452.303,447.976 450.754 L 454.500 449.527 445.500 448.878 C 440.550 448.520,434.611 447.604,432.301 446.842 C 426.921 445.067,419.000 439.501,419.000 437.495 C 419.000 436.644,420.688 433.682,422.750 430.913 C 426.015 426.529,426.629 426.103,427.500 427.623 C 428.050 428.583,430.188 431.249,432.250 433.546 C 435.273 436.913,437.019 437.928,441.250 438.776 C 446.642 439.856,452.881 439.222,456.613 437.213 C 460.057 435.360,464.630 429.537,466.513 424.605 C 468.458 419.512,468.330 419.623,470.764 420.939 C 471.719 421.455,475.200 423.055,478.500 424.494 C 481.800 425.934,486.472 428.265,488.883 429.676 L 493.267 432.241 490.113 434.708 C 486.913 437.213,483.222 443.000,484.825 443.000 C 486.651 443.000,498.177 435.537,499.146 433.727 C 500.582 431.044,498.023 428.539,489.500 424.286 C 485.650 422.365,478.178 418.140,472.896 414.897 C 463.355 409.039,463.243 409.001,455.896 409.112 C 451.828 409.173,446.250 409.614,443.500 410.092 M645.479 417.621 C 647.428 419.570,647.135 421.886,644.750 423.388 C 642.711 424.672,639.689 423.243,639.200 420.764 C 638.894 419.210,641.454 416.000,643.000 416.000 C 643.471 416.000,644.587 416.730,645.479 417.621 M173.616 424.000 C 172.053 437.305,167.047 452.064,161.655 459.269 C 158.442 463.560,155.795 468.884,156.227 470.182 C 156.419 470.757,158.002 470.028,159.745 468.562 C 168.919 460.842,177.597 434.730,175.220 422.000 L 174.379 417.500 173.616 424.000 M448.429 423.571 C 450.342 425.485,450.374 426.107,448.674 428.431 C 446.860 430.911,443.000 429.688,443.000 426.633 C 443.000 424.459,444.661 422.000,446.129 422.000 C 446.529 422.000,447.564 422.707,448.429 423.571 M487.780 451.494 C 484.634 452.768,479.459 455.782,476.280 458.191 C 466.626 465.506,452.852 469.460,429.750 471.549 C 423.189 472.142,421.352 473.153,424.582 474.393 C 427.554 475.533,441.487 474.911,453.500 473.100 C 466.507 471.140,471.509 469.184,487.000 460.003 C 495.209 455.137,499.364 451.398,498.363 449.778 C 497.547 448.458,493.756 449.073,487.780 451.494 M397.282 455.708 C 395.585 456.317,389.000 465.455,389.000 467.200 C 389.000 469.659,409.850 476.483,411.703 474.630 C 412.886 473.448,410.985 471.154,408.318 470.545 C 402.606 469.240,398.939 464.476,399.716 459.368 C 400.207 456.143,399.409 454.943,397.282 455.708 M195.670 465.750 C 195.423 466.163,194.046 470.236,192.611 474.802 C 187.800 490.100,189.461 499.706,200.514 520.500 C 207.246 533.166,210.001 540.433,209.992 545.500 C 209.980 552.468,207.979 562.315,205.448 567.871 C 204.101 570.825,203.000 573.646,203.000 574.141 C 203.000 574.636,204.912 574.075,207.250 572.895 C 218.405 567.262,227.078 558.139,230.917 548.000 C 233.471 541.253,233.728 528.279,231.482 519.460 C 229.777 512.764,224.208 501.000,222.743 501.000 C 222.217 501.000,222.089 501.788,222.460 502.750 C 225.724 511.220,227.189 529.411,224.800 531.800 C 222.341 534.259,221.169 532.857,219.532 525.500 C 218.614 521.375,217.489 518.000,217.031 518.000 C 214.319 518.000,208.000 501.069,208.000 493.806 C 208.000 489.083,206.802 487.469,205.607 490.582 C 204.326 493.921,205.248 507.009,207.540 518.000 C 208.382 522.043,206.501 518.606,202.065 508.000 C 196.912 495.682,195.700 488.483,196.576 475.408 C 197.206 466.001,196.977 463.563,195.670 465.750 M167.331 489.250 C 160.858 500.086,159.620 512.305,162.837 533.614 C 163.784 539.888,163.628 542.072,161.514 552.114 C 160.196 558.376,158.814 564.513,158.442 565.750 C 156.335 572.768,165.861 562.018,168.949 553.893 C 171.968 545.952,171.765 531.883,168.419 517.028 C 165.424 503.735,165.687 499.429,170.016 490.850 C 172.583 485.764,172.854 484.000,171.067 484.000 C 170.737 484.000,169.056 486.363,167.331 489.250 M526.965 500.750 C 526.912 507.834,524.589 517.363,522.044 520.939 C 520.806 522.677,517.027 526.401,513.647 529.214 C 505.714 535.816,505.649 537.404,513.294 537.801 C 520.008 538.150,520.029 538.180,521.993 550.000 C 523.383 558.368,524.977 562.156,528.864 566.331 C 532.754 570.509,542.787 575.686,548.500 576.463 C 551.250 576.837,554.625 577.394,556.000 577.701 C 560.066 578.607,557.094 576.476,551.500 574.473 C 544.780 572.067,537.626 565.066,533.415 556.775 C 529.285 548.643,529.125 544.854,532.500 535.193 C 535.415 526.848,535.616 523.092,533.378 518.763 C 532.431 516.932,531.544 512.062,531.248 507.063 C 530.767 498.952,529.868 496.000,527.878 496.000 C 527.395 496.000,526.984 498.137,526.965 500.750 M862.985 502.309 C 862.993 502.754,862.550 502.840,862.000 502.500 C 861.450 502.160,861.007 501.121,861.015 500.191 C 861.029 498.734,861.165 498.707,862.000 500.000 C 862.533 500.825,862.976 501.864,862.985 502.309 M773.000 507.918 C 784.315 510.320,786.647 512.237,797.197 527.806 C 804.850 539.101,806.433 542.082,806.233 544.822 C 806.099 546.650,806.667 551.065,807.495 554.634 C 808.323 558.204,808.968 565.259,808.930 570.312 L 808.859 579.500 807.404 575.524 C 806.603 573.337,805.547 571.147,805.056 570.656 C 804.565 570.165,804.387 568.355,804.659 566.632 C 805.144 563.564,801.273 549.423,798.434 543.891 C 796.630 540.377,763.994 507.421,764.022 509.142 C 764.084 512.978,769.038 519.885,781.151 533.024 C 796.906 550.112,798.596 552.352,800.522 558.701 C 801.323 561.340,801.983 563.604,801.989 563.730 C 801.995 563.857,798.737 560.662,794.750 556.631 C 786.989 548.787,781.175 544.529,776.750 543.452 C 774.161 542.822,774.001 542.980,774.016 546.142 C 774.035 549.861,775.260 552.094,785.612 567.269 C 796.489 583.213,799.284 589.537,799.787 599.345 C 800.018 603.830,799.750 609.075,799.193 611.000 C 798.295 614.103,798.170 614.203,798.090 611.884 C 797.964 608.235,791.679 596.025,788.221 592.711 C 785.492 590.097,785.268 590.047,783.756 591.729 C 782.880 592.703,781.695 596.875,781.122 601.000 C 780.549 605.125,779.444 610.300,778.667 612.500 L 777.254 616.500 776.493 609.500 C 775.668 601.909,772.549 594.054,768.689 589.841 C 766.331 587.268,761.028 584.000,759.210 584.000 C 757.505 584.000,755.999 589.139,755.900 595.297 C 755.845 598.709,755.471 602.625,755.067 604.000 C 754.420 606.209,754.248 605.975,753.597 602.000 C 751.835 591.240,748.972 586.603,741.818 582.923 L 738.136 581.029 741.932 574.264 C 744.020 570.544,747.973 563.827,750.715 559.338 C 754.888 552.509,756.073 549.420,757.972 540.412 C 759.911 531.218,761.803 515.414,761.956 507.143 C 761.991 505.278,762.365 504.947,763.750 505.556 C 764.712 505.979,768.875 507.042,773.000 507.918 M793.245 563.328 C 797.838 569.033,800.907 574.491,803.128 580.907 C 805.532 587.849,805.545 592.131,803.144 586.000 C 801.044 580.636,794.726 569.719,789.109 561.745 C 785.802 557.050,785.500 556.282,787.471 557.573 C 788.800 558.444,791.398 561.033,793.245 563.328 M733.104 600.000 C 730.931 606.325,729.118 610.907,729.076 610.181 C 728.964 608.244,733.819 589.495,735.262 586.294 L 736.500 583.548 736.777 586.024 C 736.930 587.386,735.277 593.675,733.104 600.000 M526.446 593.144 C 523.726 594.873,519.925 596.720,518.000 597.248 C 511.171 599.121,510.545 601.334,514.464 609.750 C 517.486 616.241,520.000 616.808,520.000 611.000 C 520.000 608.800,520.450 607.000,521.000 607.000 C 521.550 607.000,522.000 608.125,522.000 609.500 C 522.000 613.791,524.630 612.282,527.126 606.559 C 529.588 600.915,533.333 597.820,534.385 600.560 C 534.689 601.352,534.661 602.721,534.323 603.601 C 533.871 604.780,534.208 605.107,535.600 604.839 C 536.946 604.579,537.825 603.037,538.650 599.487 C 540.742 590.477,540.594 590.000,535.696 590.000 C 532.585 590.000,530.020 590.872,526.446 593.144 M746.847 597.882 C 748.384 603.015,748.300 609.926,746.492 627.143 C 744.742 643.798,744.077 647.834,742.972 648.517 C 741.615 649.356,731.041 636.711,729.997 633.000 C 728.451 627.510,728.792 623.498,730.972 621.525 C 732.087 620.517,735.006 613.505,737.684 605.407 C 742.008 592.332,742.568 591.204,744.059 592.553 C 744.958 593.367,746.212 595.765,746.847 597.882 M805.683 595.188 C 805.364 595.985,805.127 595.748,805.079 594.583 C 805.036 593.529,805.272 592.939,805.604 593.271 C 805.936 593.603,805.972 594.466,805.683 595.188 M495.669 596.452 C 494.661 597.215,491.511 598.376,488.669 599.032 C 482.896 600.363,476.474 603.714,473.594 606.896 C 472.547 608.053,470.650 609.000,469.379 609.000 C 464.846 609.000,460.108 612.134,458.908 615.926 C 458.286 617.892,456.734 621.413,455.459 623.750 C 453.429 627.471,453.350 627.997,454.820 627.976 C 455.744 627.963,457.811 626.180,459.413 624.014 C 461.016 621.848,463.828 618.620,465.663 616.842 L 469.000 613.608 469.000 616.804 C 469.000 621.096,470.388 620.828,474.002 615.838 C 476.853 611.903,480.769 608.377,481.432 609.148 C 481.599 609.342,482.132 611.215,482.617 613.311 C 483.732 618.125,485.270 618.177,486.255 613.434 C 487.139 609.182,492.157 602.402,495.116 601.463 C 498.137 600.504,498.315 601.351,495.942 605.374 C 494.358 608.058,494.157 609.000,495.167 609.000 C 496.313 609.000,505.000 597.085,505.000 595.514 C 505.000 594.387,497.383 595.152,495.669 596.452 M488.500 652.661 C 483.474 653.738,478.000 656.293,478.000 657.562 C 478.000 658.331,479.688 659.829,481.750 660.892 C 483.813 661.955,487.075 664.464,489.000 666.468 C 495.772 673.518,505.523 678.301,514.916 679.180 C 520.550 679.708,519.470 677.459,513.260 675.732 C 506.503 673.853,500.691 669.923,496.101 664.128 L 492.832 660.000 495.403 660.000 C 496.818 660.000,502.368 661.143,507.737 662.539 C 520.078 665.749,527.976 666.618,530.845 665.083 C 534.650 663.047,532.028 660.396,525.443 659.622 C 522.342 659.258,515.624 657.394,510.514 655.480 C 501.591 652.138,494.924 651.284,488.500 652.661 M311.000 653.398 C 311.000 653.617,308.188 657.175,304.750 661.304 C 298.070 669.329,287.264 678.422,269.518 690.949 C 252.901 702.680,254.000 702.479,254.001 693.785 C 254.003 686.877,255.989 672.829,257.577 668.500 C 259.045 664.497,260.003 663.956,262.605 665.661 C 264.953 667.199,265.180 667.106,269.971 662.624 C 272.690 660.081,275.614 658.000,276.469 658.000 C 278.753 658.000,277.465 664.756,273.421 673.987 C 271.616 678.105,270.305 681.638,270.505 681.839 C 270.706 682.039,273.211 681.426,276.071 680.476 C 282.025 678.499,286.677 674.609,295.689 664.073 C 299.257 659.902,303.677 655.882,305.771 654.904 C 309.618 653.107,311.000 652.709,311.000 653.398 M581.500 672.463 C 575.231 674.727,572.933 674.998,559.500 675.058 C 544.975 675.122,524.719 677.577,524.913 679.249 C 524.994 679.947,568.328 681.316,583.145 681.088 C 591.062 680.967,596.644 678.875,598.207 675.445 C 599.713 672.140,598.396 670.892,592.837 670.355 C 589.851 670.066,586.319 670.723,581.500 672.463 M697.364 700.250 C 695.994 713.519,685.314 737.382,671.372 758.326 C 666.182 766.122,661.750 773.400,661.523 774.500 C 661.296 775.600,660.419 790.854,659.575 808.397 C 658.730 825.940,657.800 840.533,657.508 840.825 C 657.216 841.117,652.595 840.114,647.238 838.596 C 641.882 837.078,634.125 835.223,630.000 834.472 C 625.875 833.722,615.525 831.477,607.000 829.484 C 593.258 826.270,573.000 823.766,573.000 825.282 C 573.000 826.115,587.854 830.766,593.000 831.544 C 595.475 831.919,598.068 832.533,598.763 832.910 C 600.700 833.959,596.724 837.703,592.248 839.044 C 588.918 840.041,586.908 839.705,574.229 836.032 C 552.176 829.643,548.026 829.999,521.400 840.564 C 507.635 846.027,468.767 863.451,465.343 865.695 C 463.427 866.950,462.934 866.979,462.527 865.858 C 459.638 857.907,458.664 854.287,457.450 847.000 C 456.672 842.325,456.027 836.143,456.017 833.262 C 456.008 830.381,454.863 819.131,453.474 808.262 C 449.763 779.231,447.682 769.158,445.062 767.538 C 443.143 766.352,443.894 778.159,446.582 791.425 C 448.002 798.435,448.976 804.357,448.747 804.587 C 448.517 804.816,433.736 794.053,415.899 780.670 L 383.468 756.336 373.775 735.918 C 368.445 724.688,364.493 715.357,364.995 715.182 C 366.647 714.606,375.301 718.990,380.949 723.264 C 384.002 725.575,390.325 730.642,395.000 734.525 C 407.645 745.027,416.605 750.041,435.989 757.464 C 456.190 765.200,477.776 776.731,487.180 784.809 C 496.788 793.062,519.611 809.761,530.650 816.615 C 540.219 822.556,548.194 825.994,552.428 826.005 C 556.503 826.016,577.139 810.671,611.048 782.415 C 629.996 766.626,648.749 750.820,652.720 747.291 C 661.057 739.881,687.630 709.626,693.452 700.914 C 695.625 697.661,697.517 695.000,697.655 695.000 C 697.793 695.000,697.662 697.362,697.364 700.250 M582.809 801.409 C 570.277 810.861,555.016 820.958,552.188 821.668 C 547.809 822.767,540.446 819.436,528.835 811.103 C 518.260 803.513,508.749 795.914,511.875 797.552 C 516.222 799.830,531.024 802.114,545.031 802.669 C 558.708 803.210,561.780 803.023,570.769 801.098 C 576.384 799.896,582.895 798.042,585.239 796.978 C 592.220 793.809,591.752 794.663,582.809 801.409 M698.541 840.500 C 695.260 897.441,689.681 964.788,683.963 1016.500 C 683.415 1021.450,682.459 1030.675,681.838 1037.000 C 681.217 1043.325,680.417 1048.835,680.060 1049.245 C 679.702 1049.655,678.167 1042.905,676.648 1034.245 C 673.380 1015.615,664.296 981.266,659.886 970.864 C 654.961 959.245,649.208 950.248,640.196 940.068 C 624.031 921.810,622.693 918.092,627.960 906.091 C 630.820 899.576,631.240 897.341,632.084 884.168 C 632.600 876.101,633.355 868.085,633.761 866.356 C 634.493 863.240,641.097 857.392,653.073 849.255 C 664.400 841.558,687.140 818.760,697.060 805.154 L 699.500 801.808 699.828 807.154 C 700.008 810.094,699.429 825.100,698.541 840.500 M436.996 846.498 L 453.970 854.996 455.079 859.398 C 455.688 861.819,457.452 865.307,458.998 867.150 L 461.808 870.500 468.389 868.165 L 474.971 865.830 478.339 868.665 C 494.847 882.559,503.712 890.416,524.500 909.579 C 554.370 937.115,557.007 939.928,556.979 944.228 C 556.959 947.397,554.385 965.976,551.927 980.695 C 550.644 988.377,551.364 1021.248,554.528 1099.500 C 555.374 1120.400,555.938 1148.972,555.783 1162.992 L 555.500 1188.485 552.161 1179.992 C 550.325 1175.322,546.783 1165.875,544.291 1159.000 C 541.798 1152.125,534.799 1134.575,528.737 1120.000 C 517.456 1092.876,493.117 1030.885,471.929 975.310 C 465.389 958.155,456.832 936.105,452.913 926.310 C 448.994 916.514,443.422 901.750,440.530 893.500 C 435.801 880.009,428.768 861.618,421.694 844.250 C 420.294 840.813,419.345 838.000,419.585 838.000 C 419.826 838.000,427.661 841.824,436.996 846.498 " stroke="none" fill="black" fill-rule="evenodd"/></svg>